<svg version="1.1" xmlns="http://www.w3.org/2000/svg" viewBox="0 0 1657.6352651977538 1290" width="4972.905795593261" height="3870">
  <!-- svg-source:excalidraw -->
  
  <defs>
    <style class="style-fonts">
      @font-face {
        font-family: "Virgil";
        src: url("https://excalidraw.com/Virgil.woff2");
      }
      @font-face {
        font-family: "Cascadia";
        src: url("https://excalidraw.com/Cascadia.woff2");
      }
      @font-face {
        font-family: "Assistant";
        src: url("https://excalidraw.com/Assistant-Regular.woff2");
      }
    </style>
    
  </defs>
  <rect x="0" y="0" width="1657.6352651977538" height="1290" fill="#ffffff"></rect><g stroke-linecap="round" transform="translate(597.6153982543944 206) rotate(0 118 43)"><path d="M5.07 5.73 C5.07 5.73, 5.07 5.73, 5.07 5.73 M5.07 5.73 C5.07 5.73, 5.07 5.73, 5.07 5.73 M0.61 23.05 C6.95 17.59, 10.53 8.5, 20.29 0.41 M0.61 23.05 C5.68 16.4, 11.59 11.35, 20.29 0.41 M0.74 35.09 C9.23 25.19, 13.62 18.18, 30.92 0.38 M0.74 35.09 C9.27 26.71, 17.53 16.01, 30.92 0.38 M0.87 47.14 C18.63 28.73, 32.92 12.06, 41.55 0.34 M0.87 47.14 C13.23 34.96, 23.77 20.73, 41.55 0.34 M1.01 59.18 C18.12 38.42, 34.23 20.48, 52.18 0.31 M1.01 59.18 C14.62 42.85, 29.43 24.76, 52.18 0.31 M1.14 71.22 C17.93 51.74, 31.46 37.32, 62.81 0.27 M1.14 71.22 C17.93 51.72, 34.11 32.25, 62.81 0.27 M5.21 78.73 C32.85 45.91, 60.12 17.42, 73.44 0.24 M5.21 78.73 C24.41 56.89, 43.08 35.85, 73.44 0.24 M11.25 83.98 C38.24 53.33, 65.49 19.64, 84.07 0.21 M11.25 83.98 C37.55 53.28, 62.93 24.19, 84.07 0.21 M19.91 86.21 C38.54 64.75, 56.1 47.35, 94.7 0.17 M19.91 86.21 C45.14 58.9, 69.34 29.22, 94.7 0.17 M29.88 86.93 C52.21 63.01, 77.42 33.23, 105.33 0.14 M29.88 86.93 C49.44 66.76, 66.77 44.78, 105.33 0.14 M40.51 86.89 C63.98 62.41, 83.93 37.74, 115.96 0.1 M40.51 86.89 C65.17 57.84, 89.82 28.79, 115.96 0.1 M51.14 86.86 C81.16 52.61, 107.92 20.37, 126.59 0.07 M51.14 86.86 C76.68 54.98, 104.95 24.38, 126.59 0.07 M61.77 86.82 C80.93 64.4, 101.26 41.44, 137.22 0.03 M61.77 86.82 C86.06 58.59, 109.13 32.85, 137.22 0.03 M72.4 86.79 C91.23 68.35, 105.5 47.28, 147.85 0 M72.4 86.79 C97.11 58.57, 122.39 29.78, 147.85 0 M83.03 86.76 C100.11 67.1, 119.47 46.77, 158.48 -0.04 M83.03 86.76 C102.6 63.74, 123.2 41.84, 158.48 -0.04 M93.66 86.72 C112.29 62.34, 132.56 42.52, 169.11 -0.07 M93.66 86.72 C117.81 56.3, 144.75 28.16, 169.11 -0.07 M104.29 86.69 C118.36 66.84, 135.61 48.31, 179.74 -0.11 M104.29 86.69 C129.83 56.1, 154.22 26.65, 179.74 -0.11 M114.92 86.65 C140.55 55.96, 171.42 20.78, 190.37 -0.14 M114.92 86.65 C138.91 60.48, 162.84 32.85, 190.37 -0.14 M125.55 86.62 C151.46 54.13, 179.41 22.46, 200.34 0.58 M125.55 86.62 C145.62 63.15, 166.09 40.94, 200.34 0.58 M136.18 86.58 C155.34 61.38, 179.08 41.82, 210.97 0.55 M136.18 86.58 C163.69 56.95, 188.66 26.87, 210.97 0.55 M146.81 86.55 C171.69 60.11, 195.15 34.46, 220.95 1.27 M146.81 86.55 C170.89 58.06, 194.41 30.99, 220.95 1.27 M157.44 86.51 C177.97 60.54, 202.08 32.46, 228.95 4.25 M157.44 86.51 C180.46 59.98, 202.93 34.7, 228.95 4.25 M168.07 86.48 C191.26 58.98, 215.82 33.09, 233.68 11.01 M168.07 86.48 C190.61 59.16, 213.04 33.4, 233.68 11.01 M178.7 86.44 C194.8 67.75, 212.25 46.22, 236.44 20.03 M178.7 86.44 C193.15 68.7, 207.56 52.4, 236.44 20.03 M189.33 86.41 C209.64 63.8, 227.89 43.71, 236.57 32.07 M189.33 86.41 C205.35 65.35, 223.4 47.29, 236.57 32.07 M199.96 86.38 C207.28 75.13, 215.59 67.91, 236.7 44.11 M199.96 86.38 C212.21 72.92, 223.61 58.48, 236.7 44.11 M210.59 86.34 C219.37 75.54, 228.39 64.61, 236.84 56.15 M210.59 86.34 C218.7 76.5, 228.81 65.45, 236.84 56.15 M223.19 84.04 C229.42 77.88, 233.27 74.36, 235.66 69.7 M223.19 84.04 C226.52 79.78, 231.39 75.36, 235.66 69.7 M5.41 80.66 C5.41 80.66, 5.41 80.66, 5.41 80.66 M5.41 80.66 C5.41 80.66, 5.41 80.66, 5.41 80.66 M23.49 85.77 C15.62 79.07, 8.75 74.42, 0.85 66.09 M23.49 85.77 C16.32 78.69, 8.42 72.39, 0.85 66.09 M35.53 85.64 C24.17 77.41, 13.78 65.25, 0.81 55.46 M35.53 85.64 C27.51 78.3, 19.69 70.83, 0.81 55.46 M47.57 85.51 C30.09 70.86, 13.87 56.04, 0.78 44.83 M47.57 85.51 C36.86 76.5, 27.23 68.1, 0.78 44.83 M59.61 85.37 C45.57 70.79, 29.32 57.91, 0.75 34.2 M59.61 85.37 C40.83 69.42, 22.37 52.68, 0.75 34.2 M72.41 85.9 C58.39 72.49, 41.59 61.2, 0.71 23.57 M72.41 85.9 C56.42 72.38, 43 59.46, 0.71 23.57 M84.45 85.76 C51.22 59.86, 22.57 32.36, 1.43 13.6 M84.45 85.76 C66.64 68.96, 46.57 52.75, 1.43 13.6 M96.49 85.63 C70.21 63.64, 45.25 41.51, 5.17 6.25 M96.49 85.63 C72.48 65.32, 49.61 43.63, 5.17 6.25 M108.53 85.5 C73.34 57.36, 42.46 27.4, 11.93 1.52 M108.53 85.5 C85.78 66.79, 63.71 46.85, 11.93 1.52 M120.57 85.36 C96.09 66.82, 74.93 44.49, 21.7 -0.58 M120.57 85.36 C86.52 55.07, 52.51 25.7, 21.7 -0.58 M133.37 85.89 C114.49 69.26, 91.62 49.63, 33.75 -0.71 M133.37 85.89 C111.26 66.27, 91.22 47.48, 33.75 -0.71 M145.41 85.75 C114.42 57.34, 82.58 30.54, 46.54 -0.19 M145.41 85.75 C116.82 62.56, 90.28 38.05, 46.54 -0.19 M157.45 85.62 C124.21 57.47, 87.34 27.07, 58.58 -0.32 M157.45 85.62 C127.08 57.81, 94.05 29.58, 58.58 -0.32 M169.49 85.49 C141.92 60.66, 111.01 33.41, 70.62 -0.46 M169.49 85.49 C137.06 58.14, 105.37 30.96, 70.62 -0.46 M181.53 85.35 C149.25 58.44, 116.89 27.95, 82.66 -0.59 M181.53 85.35 C149.66 58.23, 117.95 30.08, 82.66 -0.59 M194.33 85.88 C163.55 56.25, 133.26 31.29, 94.7 -0.72 M194.33 85.88 C160.56 56.07, 125.45 27.27, 94.7 -0.72 M206.37 85.74 C175.14 60.34, 148.11 33.13, 107.5 -0.2 M206.37 85.74 C184.19 65.74, 163.14 47.92, 107.5 -0.2 M217.65 84.95 C189.02 62.57, 159.77 34.8, 119.54 -0.33 M217.65 84.95 C189.46 62.01, 160.53 37.06, 119.54 -0.33 M227.43 82.85 C196.81 55.54, 162.83 27.62, 131.58 -0.47 M227.43 82.85 C202.58 60.76, 175.69 40.4, 131.58 -0.47 M232.68 76.82 C208.25 53.47, 185.5 32.32, 143.62 -0.6 M232.68 76.82 C205.65 52.53, 177.53 29.5, 143.62 -0.6 M235.66 68.81 C211.56 50.91, 189.83 32.33, 155.66 -0.73 M235.66 68.81 C208.76 46.54, 182.62 23.47, 155.66 -0.73 M236.38 58.84 C216.22 40.74, 195.38 22.41, 168.46 -0.21 M236.38 58.84 C221.92 46.51, 207.06 34.5, 168.46 -0.21 M236.35 48.21 C215.44 31.66, 197.05 15.55, 180.5 -0.34 M236.35 48.21 C216.26 31.48, 197.68 14.51, 180.5 -0.34 M236.31 37.57 C217.02 23.37, 201.37 8.55, 192.54 -0.48 M236.31 37.57 C224.68 27.41, 213.95 18.38, 192.54 -0.48 M236.28 26.94 C225.79 18.21, 214.11 8.97, 204.58 -0.61 M236.28 26.94 C227.49 18.85, 218.44 12.17, 204.58 -0.61 M236.25 16.31 C230.39 11.17, 225.13 6.24, 216.62 -0.74 M236.25 16.31 C230.93 12.34, 225.31 6.6, 216.62 -0.74" stroke="#a5d8ff" stroke-width="1" fill="none"></path><path d="M21.5 0 C62.01 1.68, 103.78 0.58, 214.5 0 M21.5 0 C78.87 -0.62, 136.15 -0.44, 214.5 0 M214.5 0 C227.23 1.55, 234.58 5.36, 236 21.5 M214.5 0 C229.76 1.12, 235.05 8.49, 236 21.5 M236 21.5 C235.12 36.34, 234.81 52.99, 236 64.5 M236 21.5 C236.48 35.54, 235.65 51.16, 236 64.5 M236 64.5 C234.76 80.55, 229.93 84.05, 214.5 86 M236 64.5 C238.04 78.45, 229 84.08, 214.5 86 M214.5 86 C139.36 86.57, 63.97 87.62, 21.5 86 M214.5 86 C142.04 86.16, 70.81 85.08, 21.5 86 M21.5 86 C7.42 85.3, -1.51 78.56, 0 64.5 M21.5 86 C7.68 84.56, 0.25 77.85, 0 64.5 M0 64.5 C-1.29 55.29, 1.76 45.75, 0 21.5 M0 64.5 C-0.82 53.53, 0.41 42.26, 0 21.5 M0 21.5 C0.89 5.82, 6.3 0.97, 21.5 0 M0 21.5 C0.07 8.17, 9.45 -1.57, 21.5 0" stroke="#1e1e1e" stroke-width="2" fill="none"></path></g><g transform="translate(611.6654776000976 224) rotate(0 103.94992065429688 25)"><text x="103.94992065429688" y="17.52" font-family="Virgil, Segoe UI Emoji" font-size="20px" fill="#1e1e1e" text-anchor="middle" style="white-space: pre;" direction="ltr" dominant-baseline="alphabetic">Which Stock Are you </text><text x="103.94992065429688" y="42.519999999999996" font-family="Virgil, Segoe UI Emoji" font-size="20px" fill="#1e1e1e" text-anchor="middle" style="white-space: pre;" direction="ltr" dominant-baseline="alphabetic">Considering Buying?</text></g><g stroke-linecap="round" transform="translate(607.6153982543944 349) rotate(0 110 33.5)"><path d="M127.26 0.54 C141.61 0.71, 157.12 3.27, 169.75 5.85 C182.37 8.44, 194.84 12.31, 203 16.07 C211.15 19.82, 216.33 24.02, 218.67 28.38 C221.01 32.74, 220.78 37.81, 217.03 42.23 C213.29 46.64, 205.57 51.39, 196.21 54.88 C186.84 58.37, 174.16 61.14, 160.83 63.17 C147.5 65.2, 131.35 66.73, 116.22 67.07 C101.09 67.4, 84.11 66.67, 70.03 65.2 C55.95 63.73, 42.07 61.42, 31.71 58.23 C21.35 55.03, 13.18 50.28, 7.88 46.03 C2.59 41.77, -0.75 37.45, -0.04 32.69 C0.67 27.93, 5.48 21.65, 12.14 17.46 C18.8 13.26, 28.4 10.29, 39.92 7.54 C51.43 4.79, 65.77 2.24, 81.23 0.96 C96.7 -0.31, 122.88 -0.34, 132.7 -0.1 C142.52 0.13, 140.42 1.79, 140.15 2.35 M149.95 3.38 C164.1 4.43, 178.95 6.69, 189.53 9.84 C200.11 12.98, 208.44 17.76, 213.41 22.26 C218.39 26.76, 220.6 32.59, 219.38 36.82 C218.16 41.05, 212.96 43.72, 206.08 47.62 C199.2 51.52, 189.37 57.12, 178.1 60.21 C166.83 63.3, 152.71 65.29, 138.48 66.16 C124.24 67.03, 107.55 66.17, 92.7 65.45 C77.84 64.73, 61.86 64.08, 49.36 61.82 C36.85 59.56, 25.55 55.84, 17.66 51.9 C9.77 47.96, 4.47 42.86, 2.03 38.18 C-0.42 33.5, -0.77 27.96, 3 23.84 C6.77 19.72, 14.9 16.65, 24.67 13.48 C34.44 10.31, 48.32 7.33, 61.61 4.84 C74.9 2.34, 89.4 -0.99, 104.4 -1.47 C119.39 -1.95, 143.98 1.34, 151.55 1.94 C159.13 2.55, 150.71 1.77, 149.86 2.14" stroke="none" stroke-width="0" fill="#a5d8ff"></path><path d="M72.73 2.82 C85.49 0.87, 102.93 -0.84, 117.84 -0.64 C132.76 -0.44, 149.12 1.73, 162.23 4.02 C175.34 6.31, 187.43 9.64, 196.49 13.11 C205.56 16.58, 213.07 20.55, 216.61 24.82 C220.16 29.09, 220.26 34.3, 217.77 38.74 C215.28 43.19, 209.73 47.56, 201.67 51.5 C193.6 55.45, 182.07 59.81, 169.37 62.42 C156.68 65.02, 140.4 66.68, 125.53 67.14 C110.65 67.6, 94.38 66.48, 80.11 65.18 C65.85 63.88, 51.29 62.05, 39.94 59.34 C28.6 56.62, 18.84 52.99, 12.04 48.87 C5.24 44.75, -0.13 39.12, -0.86 34.61 C-1.58 30.1, 1.85 26.08, 7.68 21.83 C13.51 17.58, 22.16 12.67, 34.11 9.11 C46.06 5.55, 70.48 1.79, 79.38 0.47 C88.28 -0.84, 87.06 0.68, 87.49 1.23 M155.62 1.51 C169.64 2.71, 182.43 7.21, 192.36 10.84 C202.29 14.47, 210.71 19.05, 215.18 23.32 C219.65 27.59, 220.65 32.22, 219.19 36.47 C217.73 40.71, 213.65 44.65, 206.42 48.79 C199.2 52.92, 187.95 58.24, 175.84 61.27 C163.74 64.29, 148.27 65.93, 133.79 66.93 C119.31 67.92, 103.43 68.16, 88.98 67.24 C74.53 66.33, 59.54 64.21, 47.11 61.45 C34.67 58.68, 22.03 54.93, 14.35 50.66 C6.67 46.39, 2.66 40.18, 1.01 35.83 C-0.63 31.48, -0.13 28.73, 4.47 24.58 C9.07 20.42, 18.54 14.52, 28.6 10.9 C38.66 7.29, 51.32 4.8, 64.83 2.91 C78.34 1.02, 94.52 -0.55, 109.65 -0.45 C124.78 -0.35, 148.3 2.98, 155.61 3.52 C162.92 4.06, 154.42 2.17, 153.5 2.79" stroke="#1e1e1e" stroke-width="2" fill="none"></path></g><g transform="translate(656.183688944968 369.81192283025064) rotate(0 61.64996337890625 12.5)"><text x="61.64996337890625" y="17.52" font-family="Virgil, Segoe UI Emoji" font-size="20px" fill="#1e1e1e" text-anchor="middle" style="white-space: pre;" direction="ltr" dominant-baseline="alphabetic">eg. "NVIDIA"</text></g><g stroke-linecap="round"><g transform="translate(721.9041421337718 304) rotate(0 -0.6329895352341168 19.50442808086848)"><path d="M0.03 0.23 C-0.21 6.89, -0.84 32.96, -1.03 39.5 M-0.63 -0.13 C-0.95 6.43, -1.21 32.33, -1.35 38.78" stroke="#1e1e1e" stroke-width="2" fill="none"></path></g><g transform="translate(721.9041421337718 304) rotate(0 -0.6329895352341168 19.50442808086848)"><path d="M-7.74 20.34 C-5.03 27.64, -2.18 34.36, -1.35 38.78 M-7.74 20.34 C-5.1 27.35, -2.73 34.41, -1.35 38.78" stroke="#1e1e1e" stroke-width="2" fill="none"></path></g><g transform="translate(721.9041421337718 304) rotate(0 -0.6329895352341168 19.50442808086848)"><path d="M5.61 20.55 C3.34 27.77, 1.2 34.41, -1.35 38.78 M5.61 20.55 C3.18 27.5, 0.48 34.48, -1.35 38.78" stroke="#1e1e1e" stroke-width="2" fill="none"></path></g></g><mask></mask><g stroke-linecap="round" transform="translate(623.6153982543944 642) rotate(0 108.5 40.5)"><path d="M20.25 0 C86.34 1.06, 153.5 3.67, 196.75 0 C213.35 2.53, 216.94 5.77, 217 20.25 C213.43 26.4, 214.65 41.69, 217 60.75 C214.87 76.4, 213.45 79.32, 196.75 81 C146.1 85.39, 86.95 83.95, 20.25 81 C8.23 82.86, 1.17 72.35, 0 60.75 C1.85 50.33, -3.43 39.87, 0 20.25 C-2.38 8.95, 4.57 -1.99, 20.25 0" stroke="none" stroke-width="0" fill="#ffec99"></path><path d="M20.25 0 C82.74 0.79, 147.27 2.12, 196.75 0 M20.25 0 C87.83 0.45, 156.14 1.44, 196.75 0 M196.75 0 C212.03 1.5, 215.37 7.82, 217 20.25 M196.75 0 C212.1 0.18, 216.85 8.67, 217 20.25 M217 20.25 C216.74 34.75, 215.58 48.57, 217 60.75 M217 20.25 C217.08 31.74, 217.48 42.99, 217 60.75 M217 60.75 C216.92 72.55, 212.15 79.92, 196.75 81 M217 60.75 C215.51 72.31, 212.24 79.4, 196.75 81 M196.75 81 C136.77 79.57, 73.19 81.82, 20.25 81 M196.75 81 C157.09 79.55, 116.51 80.02, 20.25 81 M20.25 81 C6.86 80.77, 0.88 75.77, 0 60.75 M20.25 81 C4.84 81.4, 1.61 73.26, 0 60.75 M0 60.75 C0.87 45.47, -0.6 32.22, 0 20.25 M0 60.75 C0.51 48.23, -0.24 38.25, 0 20.25 M0 20.25 C-1.63 6.13, 5.99 -1.34, 20.25 0 M0 20.25 C-0.19 7.82, 7.99 -0.81, 20.25 0" stroke="#1e1e1e" stroke-width="2" fill="none"></path></g><g transform="translate(633.2654760742187 657.5) rotate(0 98.84992218017578 25)"><text x="98.84992218017578" y="17.52" font-family="Virgil, Segoe UI Emoji" font-size="20px" fill="#1e1e1e" text-anchor="middle" style="white-space: pre;" direction="ltr" dominant-baseline="alphabetic">Calculate Score For</text><text x="98.84992218017578" y="42.519999999999996" font-family="Virgil, Segoe UI Emoji" font-size="20px" fill="#1e1e1e" text-anchor="middle" style="white-space: pre;" direction="ltr" dominant-baseline="alphabetic">Porter's 5 Forces</text></g><g stroke-linecap="round" transform="translate(622.6153982543944 827) rotate(0 110 42.5)"><path d="M21.25 0 C75.39 1.19, 138.55 0.6, 198.75 0 C210.45 1.17, 221.68 5.83, 220 21.25 C221.37 33.31, 219.45 45.61, 220 63.75 C222.88 78.65, 212.28 83.58, 198.75 85 C127.07 86.35, 54.52 86.45, 21.25 85 C4.44 81.57, -2.72 81.16, 0 63.75 C0.13 45.91, 1.68 36.3, 0 21.25 C1.91 9.69, 4.13 2.59, 21.25 0" stroke="none" stroke-width="0" fill="#ffec99"></path><path d="M21.25 0 C59.73 1.4, 99.8 0.36, 198.75 0 M21.25 0 C75.22 0.73, 129.75 -0.58, 198.75 0 M198.75 0 C212.02 -0.78, 219.74 6.5, 220 21.25 M198.75 0 C214.23 0.54, 217.72 7.6, 220 21.25 M220 21.25 C220.52 36.8, 220.25 52.35, 220 63.75 M220 21.25 C220.88 36.25, 221 52.81, 220 63.75 M220 63.75 C218.75 77.26, 214.84 84.92, 198.75 85 M220 63.75 C218.66 78.28, 210.86 83.66, 198.75 85 M198.75 85 C143.63 83.18, 85.78 84.16, 21.25 85 M198.75 85 C147.12 85.33, 93.98 85.34, 21.25 85 M21.25 85 C6.28 83.21, -0.07 77.05, 0 63.75 M21.25 85 C4.82 86.05, -1.43 77.45, 0 63.75 M0 63.75 C0.05 56.23, 2.2 45.02, 0 21.25 M0 63.75 C-0.27 48.62, 0.19 32.38, 0 21.25 M0 21.25 C1.01 8.33, 8.29 -0.16, 21.25 0 M0 21.25 C0.66 5.83, 6.38 2, 21.25 0" stroke="#1e1e1e" stroke-width="2" fill="none"></path></g><g transform="translate(629.695484008789 844.5) rotate(0 102.91991424560547 25)"><text x="102.91991424560547" y="17.52" font-family="Virgil, Segoe UI Emoji" font-size="20px" fill="#1e1e1e" text-anchor="middle" style="white-space: pre;" direction="ltr" dominant-baseline="alphabetic">Estimate Target </text><text x="102.91991424560547" y="42.519999999999996" font-family="Virgil, Segoe UI Emoji" font-size="20px" fill="#1e1e1e" text-anchor="middle" style="white-space: pre;" direction="ltr" dominant-baseline="alphabetic">Premium to S&amp;P 500</text></g><g stroke-linecap="round" transform="translate(613.6153982543944 460) rotate(0 115 42.5)"><path d="M21.25 0 C68.99 -0.5, 112.47 0.53, 208.75 0 C226.27 -2.02, 228.2 10.37, 230 21.25 C227.17 37.25, 231.33 50.28, 230 63.75 C226.7 74.87, 225.55 81.96, 208.75 85 C169.27 82.98, 125.94 81.63, 21.25 85 C4.16 86.51, -1.23 74.87, 0 63.75 C1.11 49.4, -0.93 34.42, 0 21.25 C0.62 7.6, 8.67 -3.13, 21.25 0" stroke="none" stroke-width="0" fill="#ffec99"></path><path d="M21.25 0 C78.9 -1.57, 140.85 1.06, 208.75 0 M21.25 0 C77.29 1.2, 132.17 0.61, 208.75 0 M208.75 0 C222.77 -1.54, 228.65 5.42, 230 21.25 M208.75 0 C221.2 2, 227.81 5.45, 230 21.25 M230 21.25 C231.12 31.67, 228.68 42.86, 230 63.75 M230 21.25 C230.03 31.74, 229.47 41.11, 230 63.75 M230 63.75 C231.11 78.13, 221.42 83.47, 208.75 85 M230 63.75 C227.83 75.95, 223.33 86.84, 208.75 85 M208.75 85 C140.31 83.16, 72.54 84.66, 21.25 85 M208.75 85 C164.4 86.85, 120.21 86.06, 21.25 85 M21.25 85 C5.2 86.47, 0.81 76.73, 0 63.75 M21.25 85 C8.75 85.48, -0.33 76.45, 0 63.75 M0 63.75 C-0.9 52.91, 1.11 41.12, 0 21.25 M0 63.75 C-1.18 48.5, -0.28 35.1, 0 21.25 M0 21.25 C1.88 6.44, 6.51 1.37, 21.25 0 M0 21.25 C2.01 5.38, 8.5 0.3, 21.25 0" stroke="#1e1e1e" stroke-width="2" fill="none"></path></g><g transform="translate(626.795467224121 477.5) rotate(0 101.81993103027344 25)"><text x="101.81993103027344" y="17.52" font-family="Virgil, Segoe UI Emoji" font-size="20px" fill="#1e1e1e" text-anchor="middle" style="white-space: pre;" direction="ltr" dominant-baseline="alphabetic">Lookup Ticker / </text><text x="101.81993103027344" y="42.519999999999996" font-family="Virgil, Segoe UI Emoji" font-size="20px" fill="#1e1e1e" text-anchor="middle" style="white-space: pre;" direction="ltr" dominant-baseline="alphabetic">Validate in S&amp;P 500</text></g><g stroke-linecap="round" transform="translate(901.6153982543944 321) rotate(0 74.5 60)"><path d="M93.75 15.25 C98.63 25.29, 109.99 30.22, 130.25 45.75 C145.6 62.02, 151.58 60.7, 130.25 76.25 C118.42 87.42, 98.14 95.53, 93.75 104.75 C74.45 123.55, 74.13 120.6, 56.25 104.75 C48.94 93.55, 35.48 92.21, 18.75 76.25 C-2.82 62.79, -0.24 57.84, 18.75 45.75 C31.88 36.02, 46.06 27.68, 56.25 15.25 C74.42 2.83, 74.33 -1.39, 93.75 15.25" stroke="none" stroke-width="0" fill="#ffc9c9"></path><path d="M93.75 15.25 C101 20.12, 108.29 27.6, 130.25 45.75 M93.75 15.25 C107.25 27.47, 122.42 39.02, 130.25 45.75 M130.25 45.75 C149.27 62.25, 148.39 61.12, 130.25 76.25 M130.25 45.75 C147.62 60.76, 147.75 62.61, 130.25 76.25 M130.25 76.25 C123.09 83.7, 114.48 89.52, 93.75 104.75 M130.25 76.25 C117.85 85.62, 105.72 96.12, 93.75 104.75 M93.75 104.75 C73.79 118.18, 74.86 121.52, 56.25 104.75 M93.75 104.75 C72.8 121.12, 74.29 118.18, 56.25 104.75 M56.25 104.75 C45.37 94.95, 35.97 89.88, 18.75 76.25 M56.25 104.75 C40.59 93.23, 25.14 81.99, 18.75 76.25 M18.75 76.25 C-0.89 62.02, 0.44 61.25, 18.75 45.75 M18.75 76.25 C1.1 59.26, -1.62 60.82, 18.75 45.75 M18.75 45.75 C31.2 35.11, 42.95 26.45, 56.25 15.25 M18.75 45.75 C31.84 35.84, 44.24 26.12, 56.25 15.25 M56.25 15.25 C74.56 -0.3, 76.85 0.08, 93.75 15.25 M56.25 15.25 C72.73 -1.78, 75.61 -1.53, 93.75 15.25" stroke="#1e1e1e" stroke-width="2" fill="none"></path></g><g transform="translate(946.8754232788085 356) rotate(0 29.489974975585938 25)"><text x="29.489974975585938" y="17.52" font-family="Virgil, Segoe UI Emoji" font-size="20px" fill="#1e1e1e" text-anchor="middle" style="white-space: pre;" direction="ltr" dominant-baseline="alphabetic">Not in</text><text x="29.489974975585938" y="42.519999999999996" font-family="Virgil, Segoe UI Emoji" font-size="20px" fill="#1e1e1e" text-anchor="middle" style="white-space: pre;" direction="ltr" dominant-baseline="alphabetic">S&amp;P</text></g><g stroke-linecap="round"><g transform="translate(857.6153982543944 501) rotate(0 60 -22.5)"><path d="M-0.63 -1.12 C10.74 0.07, 48.92 16.01, 69.07 7.37 C89.22 -1.26, 111.96 -42.82, 120.27 -52.93 M1.24 0.9 C12.47 2.23, 48.95 17.32, 68.68 8.58 C88.41 -0.17, 111.33 -41.42, 119.65 -51.57" stroke="#1e1e1e" stroke-width="2" fill="none"></path></g><g transform="translate(857.6153982543944 501) rotate(0 60 -22.5)"><path d="M113.31 -27.39 C113.77 -34.61, 116.96 -44.97, 119.65 -51.57 M113.31 -27.39 C115.68 -35.75, 117.53 -43.08, 119.65 -51.57" stroke="#1e1e1e" stroke-width="2" fill="none"></path></g><g transform="translate(857.6153982543944 501) rotate(0 60 -22.5)"><path d="M99.25 -37.12 C104.98 -40.63, 113.42 -47.36, 119.65 -51.57 M99.25 -37.12 C105.83 -42.47, 111.99 -46.82, 119.65 -51.57" stroke="#1e1e1e" stroke-width="2" fill="none"></path></g></g><mask></mask><g stroke-linecap="round"><g transform="translate(977.6153982543944 307) rotate(0 -65 -29.5)"><path d="M-0.39 -1.13 C-8.98 -10.77, -29.74 -47.1, -51.46 -56.67 C-73.18 -66.25, -117.58 -58.21, -130.7 -58.56 M1.61 0.89 C-7.2 -8.09, -30.41 -45.23, -52.65 -55.49 C-74.89 -65.75, -118.94 -60.34, -131.83 -60.68" stroke="#1e1e1e" stroke-width="2" fill="none"></path></g><g transform="translate(977.6153982543944 307) rotate(0 -65 -29.5)"><path d="M-108.66 -70.07 C-117.63 -68, -124.05 -65.48, -131.83 -60.68 M-108.66 -70.07 C-116.19 -66.71, -124.55 -64.66, -131.83 -60.68" stroke="#1e1e1e" stroke-width="2" fill="none"></path></g><g transform="translate(977.6153982543944 307) rotate(0 -65 -29.5)"><path d="M-108.04 -52.98 C-117.37 -56.21, -123.98 -58.98, -131.83 -60.68 M-108.04 -52.98 C-115.76 -55.37, -124.33 -59.06, -131.83 -60.68" stroke="#1e1e1e" stroke-width="2" fill="none"></path></g></g><mask></mask><g stroke-linecap="round" transform="translate(332.1153982543945 649.5) rotate(0 107 30)"><path d="M15 0 C89.28 1.37, 159.09 0.34, 199 0 C208.06 3.4, 211.45 2.85, 214 15 C214.72 28.12, 215.54 35.42, 214 45 C214.91 51.88, 206.14 61.03, 199 60 C145.58 61.93, 87.09 57.29, 15 60 C6.36 62.2, -0.96 57.61, 0 45 C-1.46 33.37, -3.48 26.42, 0 15 C3.51 6.87, 3.67 1.84, 15 0" stroke="none" stroke-width="0" fill="#ffec99"></path><path d="M15 0 C84.55 -0.97, 154.22 -0.09, 199 0 M15 0 C85.13 0.94, 154.07 2.45, 199 0 M199 0 C210.9 -1.54, 213.66 6.16, 214 15 M199 0 C208.34 2.21, 213.01 6.53, 214 15 M214 15 C212.67 26.71, 213.07 37.16, 214 45 M214 15 C214.79 27.06, 214.28 38.94, 214 45 M214 45 C214.9 53.36, 208.27 58.53, 199 60 M214 45 C213.63 54.87, 208.55 62.03, 199 60 M199 60 C137.9 57.61, 79.33 60.71, 15 60 M199 60 C153.48 60.02, 108.19 61.29, 15 60 M15 60 C5.17 58.92, -1.49 54.92, 0 45 M15 60 C2.83 58.64, -1.76 54.05, 0 45 M0 45 C0.05 37.16, 1.66 32.87, 0 15 M0 45 C0.4 32.95, 0.43 21.14, 0 15 M0 15 C-0.27 4.37, 6.8 0.41, 15 0 M0 15 C-1.12 2.87, 4.32 2.14, 15 0" stroke="#1e1e1e" stroke-width="2" fill="none"></path></g><g transform="translate(370.42544158935544 654.5) rotate(0 68.68995666503906 25)"><text x="68.68995666503906" y="17.52" font-family="Virgil, Segoe UI Emoji" font-size="20px" fill="#1e1e1e" text-anchor="middle" style="white-space: pre;" direction="ltr" dominant-baseline="alphabetic">Get Earnings </text><text x="68.68995666503906" y="42.519999999999996" font-family="Virgil, Segoe UI Emoji" font-size="20px" fill="#1e1e1e" text-anchor="middle" style="white-space: pre;" direction="ltr" dominant-baseline="alphabetic">Multiple</text></g><g transform="translate(310.6153982543945 219) rotate(0 118.96989440917969 12.5)"><text x="0" y="17.52" font-family="Virgil, Segoe UI Emoji" font-size="20px" fill="#1e1e1e" text-anchor="start" style="white-space: pre;" direction="ltr" dominant-baseline="alphabetic">1. Prompt for User input</text></g><g stroke-linecap="round"><g transform="translate(723.6153982543944 424) rotate(0 0 13.5)"><path d="M-0.44 -0.1 C-0.58 4.37, -0.49 22.7, -0.47 27.16 M0.34 -0.62 C0.32 3.64, 0.71 21.66, 0.52 26.28" stroke="#1e1e1e" stroke-width="2" fill="none"></path></g><g transform="translate(723.6153982543944 424) rotate(0 0 13.5)"><path d="M-4.02 13.56 C-2.4 17.75, -0.39 22.7, 0.52 26.28 M-4.02 13.56 C-2.66 16.46, -1.92 19.66, 0.52 26.28" stroke="#1e1e1e" stroke-width="2" fill="none"></path></g><g transform="translate(723.6153982543944 424) rotate(0 0 13.5)"><path d="M5.21 13.62 C3.38 17.75, 1.94 22.68, 0.52 26.28 M5.21 13.62 C4.38 16.46, 2.93 19.64, 0.52 26.28" stroke="#1e1e1e" stroke-width="2" fill="none"></path></g></g><mask></mask><g transform="translate(313.9257742309571 356.41068841002874) rotate(0 116.21990966796875 25)"><text x="0" y="17.52" font-family="Virgil, Segoe UI Emoji" font-size="20px" fill="#1e1e1e" text-anchor="start" style="white-space: pre;" direction="ltr" dominant-baseline="alphabetic">2. User types company </text><text x="0" y="42.519999999999996" font-family="Virgil, Segoe UI Emoji" font-size="20px" fill="#1e1e1e" text-anchor="start" style="white-space: pre;" direction="ltr" dominant-baseline="alphabetic">   name or ticker.</text></g><g transform="translate(307.6153982543945 461) rotate(0 118.66991424560547 50)"><text x="0" y="17.52" font-family="Virgil, Segoe UI Emoji" font-size="20px" fill="#1e1e1e" text-anchor="start" style="white-space: pre;" direction="ltr" dominant-baseline="alphabetic">3. Locate ticker and</text><text x="0" y="42.519999999999996" font-family="Virgil, Segoe UI Emoji" font-size="20px" fill="#1e1e1e" text-anchor="start" style="white-space: pre;" direction="ltr" dominant-baseline="alphabetic">   confirm that company</text><text x="0" y="67.52" font-family="Virgil, Segoe UI Emoji" font-size="20px" fill="#1e1e1e" text-anchor="start" style="white-space: pre;" direction="ltr" dominant-baseline="alphabetic">   is a member of the </text><text x="0" y="92.52" font-family="Virgil, Segoe UI Emoji" font-size="20px" fill="#1e1e1e" text-anchor="start" style="white-space: pre;" direction="ltr" dominant-baseline="alphabetic">   S&amp;P 500 index.</text></g><g transform="translate(1068.6153982543944 334) rotate(0 159.34988403320312 50)"><text x="0" y="17.52" font-family="Virgil, Segoe UI Emoji" font-size="20px" fill="#1e1e1e" text-anchor="start" style="white-space: pre;" direction="ltr" dominant-baseline="alphabetic">4. If the company cannot be</text><text x="0" y="42.519999999999996" font-family="Virgil, Segoe UI Emoji" font-size="20px" fill="#1e1e1e" text-anchor="start" style="white-space: pre;" direction="ltr" dominant-baseline="alphabetic">   validated as a member of </text><text x="0" y="67.52" font-family="Virgil, Segoe UI Emoji" font-size="20px" fill="#1e1e1e" text-anchor="start" style="white-space: pre;" direction="ltr" dominant-baseline="alphabetic">   the S&amp;P 500 index, prompt</text><text x="0" y="92.52" font-family="Virgil, Segoe UI Emoji" font-size="20px" fill="#1e1e1e" text-anchor="start" style="white-space: pre;" direction="ltr" dominant-baseline="alphabetic">   the user for a new selection.</text></g><g stroke-linecap="round"><g transform="translate(726.5892424653237 554.7317295688705) rotate(0 -1 37)"><path d="M-1.05 -1.08 C-1.07 11.43, -0.9 62.1, -1.03 74.42 M0.61 0.97 C0.59 13.17, -0.95 60.43, -1.46 72.52" stroke="#1e1e1e" stroke-width="2" fill="none"></path></g><g transform="translate(726.5892424653237 554.7317295688705) rotate(0 -1 37)"><path d="M-9.16 48.74 C-9.34 55.79, -5.1 59.86, -1.46 72.52 M-9.16 48.74 C-7.25 53.58, -5.86 58.22, -1.46 72.52" stroke="#1e1e1e" stroke-width="2" fill="none"></path></g><g transform="translate(726.5892424653237 554.7317295688705) rotate(0 -1 37)"><path d="M7.93 49.36 C3.9 56.12, 4.28 60.05, -1.46 72.52 M7.93 49.36 C6.36 54.2, 4.26 58.72, -1.46 72.52" stroke="#1e1e1e" stroke-width="2" fill="none"></path></g></g><mask></mask><g transform="translate(10 582) rotate(0 147.17987060546875 100)"><text x="0" y="17.52" font-family="Virgil, Segoe UI Emoji" font-size="20px" fill="#1e1e1e" text-anchor="start" style="white-space: pre;" direction="ltr" dominant-baseline="alphabetic">5. Function call using</text><text x="0" y="42.519999999999996" font-family="Virgil, Segoe UI Emoji" font-size="20px" fill="#1e1e1e" text-anchor="start" style="white-space: pre;" direction="ltr" dominant-baseline="alphabetic">   open source stock</text><text x="0" y="67.52" font-family="Virgil, Segoe UI Emoji" font-size="20px" fill="#1e1e1e" text-anchor="start" style="white-space: pre;" direction="ltr" dominant-baseline="alphabetic">   API (eg. Yahoo finance)</text><text x="0" y="92.52" font-family="Virgil, Segoe UI Emoji" font-size="20px" fill="#1e1e1e" text-anchor="start" style="white-space: pre;" direction="ltr" dominant-baseline="alphabetic">   to locate the P/E</text><text x="0" y="117.52" font-family="Virgil, Segoe UI Emoji" font-size="20px" fill="#1e1e1e" text-anchor="start" style="white-space: pre;" direction="ltr" dominant-baseline="alphabetic">   on next year's consensus</text><text x="0" y="142.52" font-family="Virgil, Segoe UI Emoji" font-size="20px" fill="#1e1e1e" text-anchor="start" style="white-space: pre;" direction="ltr" dominant-baseline="alphabetic">   earnings estimate for both</text><text x="0" y="167.52" font-family="Virgil, Segoe UI Emoji" font-size="20px" fill="#1e1e1e" text-anchor="start" style="white-space: pre;" direction="ltr" dominant-baseline="alphabetic">   the individual stock and </text><text x="0" y="192.52" font-family="Virgil, Segoe UI Emoji" font-size="20px" fill="#1e1e1e" text-anchor="start" style="white-space: pre;" direction="ltr" dominant-baseline="alphabetic">   that of the S&amp;P 500.</text></g><g stroke-linecap="round"><g transform="translate(595.6153982543944 522) rotate(0 -78.5 59.5)"><path d="M-0.08 -0.32 C-14.66 6.84, -61.94 22.23, -88.21 42.05 C-114.48 61.87, -146.05 105.69, -157.7 118.62 M-1.57 -1.54 C-16.27 5.83, -63.06 22.88, -89.27 43.09 C-115.48 63.3, -147.31 107.35, -158.83 119.74" stroke="#1e1e1e" stroke-width="2" fill="none"></path></g><g transform="translate(595.6153982543944 522) rotate(0 -78.5 59.5)"><path d="M-150.37 96.21 C-153.12 101.5, -156.19 106.33, -158.83 119.74 M-150.37 96.21 C-152.31 101.83, -155.23 109.08, -158.83 119.74" stroke="#1e1e1e" stroke-width="2" fill="none"></path></g><g transform="translate(595.6153982543944 522) rotate(0 -78.5 59.5)"><path d="M-137.22 107.15 C-143.04 109.81, -149.27 112.01, -158.83 119.74 M-137.22 107.15 C-142.6 109.91, -149.04 114.23, -158.83 119.74" stroke="#1e1e1e" stroke-width="2" fill="none"></path></g></g><mask></mask><g stroke-linecap="round" transform="translate(320.1153982543945 827.5) rotate(0 113.5 42.5)"><path d="M21.25 0 C85.37 -2.92, 149.25 -1.11, 205.75 0 C220.48 3.35, 226.79 4.42, 227 21.25 C224.91 33.17, 229.06 49.71, 227 63.75 C226.5 81.42, 217.43 83.84, 205.75 85 C153.55 83.52, 103.53 85.76, 21.25 85 C8.85 82.57, -0.75 75.05, 0 63.75 C-3.05 48.05, 2.46 40.08, 0 21.25 C1.23 8.2, 10.4 1.85, 21.25 0" stroke="none" stroke-width="0" fill="#ffec99"></path><path d="M21.25 0 C66.36 -0.56, 113.76 -0.38, 205.75 0 M21.25 0 C64.75 1.13, 107.45 2.04, 205.75 0 M205.75 0 C221.48 1.16, 226.58 8.73, 227 21.25 M205.75 0 C219.16 -0.57, 225.08 5.37, 227 21.25 M227 21.25 C225.78 34.73, 227.53 51.16, 227 63.75 M227 21.25 C226.4 32.25, 227.66 43.56, 227 63.75 M227 63.75 C225.97 75.98, 218.15 85.06, 205.75 85 M227 63.75 C226.76 78.25, 220.11 87.04, 205.75 85 M205.75 85 C164.2 84.24, 124.45 85.44, 21.25 85 M205.75 85 C154.99 85.69, 106.85 84.22, 21.25 85 M21.25 85 C8.62 86.96, -0.42 77.31, 0 63.75 M21.25 85 C4.97 83.87, -0.8 78.57, 0 63.75 M0 63.75 C1.44 53.04, -2.11 40.36, 0 21.25 M0 63.75 C-1.12 47.24, 0.3 31.59, 0 21.25 M0 21.25 C-1.32 6.01, 8.02 -1.9, 21.25 0 M0 21.25 C-0.98 5.91, 6.31 -0.51, 21.25 0" stroke="#1e1e1e" stroke-width="2" fill="none"></path></g><g transform="translate(330.69548400878904 845) rotate(0 102.91991424560547 25)"><text x="102.91991424560547" y="17.52" font-family="Virgil, Segoe UI Emoji" font-size="20px" fill="#1e1e1e" text-anchor="middle" style="white-space: pre;" direction="ltr" dominant-baseline="alphabetic">Calculate Current </text><text x="102.91991424560547" y="42.519999999999996" font-family="Virgil, Segoe UI Emoji" font-size="20px" fill="#1e1e1e" text-anchor="middle" style="white-space: pre;" direction="ltr" dominant-baseline="alphabetic">Premium to S&amp;P 500</text></g><g stroke-linecap="round" transform="translate(639.6153982543944 1012) rotate(0 95.5 30)"><path d="M15 0 C67.4 2.37, 123.18 0.89, 176 0 C186.02 -2.36, 191.89 2.19, 191 15 C189.79 26.94, 189.66 35.01, 191 45 C193.48 53.29, 189.34 59.35, 176 60 C119.26 59.64, 69.84 57.52, 15 60 C6.07 56.86, -0.53 51.6, 0 45 C-2.36 35.49, -2.35 24.61, 0 15 C-3.23 3.82, 5.13 1.54, 15 0" stroke="none" stroke-width="0" fill="#ffec99"></path><path d="M15 0 C71.22 -2.29, 128.21 -0.51, 176 0 M15 0 C51.68 0.56, 89.46 0.82, 176 0 M176 0 C184.83 -1.06, 192.54 5.73, 191 15 M176 0 C184.69 -0.25, 190.34 3.9, 191 15 M191 15 C192.07 27.37, 190.77 36.22, 191 45 M191 15 C190.14 22.86, 191.45 32.96, 191 45 M191 45 C191.81 54.62, 185.88 59.12, 176 60 M191 45 C188.76 54.54, 185.62 57.73, 176 60 M176 60 C138.33 59.85, 97.91 59.36, 15 60 M176 60 C131.85 57.77, 86.96 58.05, 15 60 M15 60 C3.22 59.17, -1.21 56.64, 0 45 M15 60 C4.44 59.39, 2.28 52.88, 0 45 M0 45 C2.1 34.77, -0.67 22.67, 0 15 M0 45 C0.67 37.66, 1.25 31.53, 0 15 M0 15 C-1.14 3.89, 3.93 0.47, 15 0 M0 15 C1.49 7.28, 3 -0.08, 15 0" stroke="#1e1e1e" stroke-width="2" fill="none"></path></g><g transform="translate(648.1154669189452 1017) rotate(0 86.99993133544922 25)"><text x="86.99993133544922" y="17.52" font-family="Virgil, Segoe UI Emoji" font-size="20px" fill="#1e1e1e" text-anchor="middle" style="white-space: pre;" direction="ltr" dominant-baseline="alphabetic">Calculate Target</text><text x="86.99993133544922" y="42.519999999999996" font-family="Virgil, Segoe UI Emoji" font-size="20px" fill="#1e1e1e" text-anchor="middle" style="white-space: pre;" direction="ltr" dominant-baseline="alphabetic">Return</text></g><g stroke-linecap="round"><g transform="translate(841.6153982543944 1067) rotate(0 13.5 -23)"><path d="M-0.52 -0.29 C4.38 -6.12, 28.85 -26.29, 28.69 -34.1 C28.54 -41.92, 3.37 -45.1, -1.44 -47.18 M1.41 -1.48 C6.28 -7.2, 28.75 -25.12, 28.11 -32.62 C27.47 -40.12, 2.15 -44.28, -2.43 -46.49" stroke="#1e1e1e" stroke-width="2" fill="none"></path></g><g transform="translate(841.6153982543944 1067) rotate(0 13.5 -23)"><path d="M13.23 -47.39 C9.11 -46.34, 5.6 -47.6, -2.43 -46.49 M13.23 -47.39 C9.97 -48.04, 7.16 -47.41, -2.43 -46.49" stroke="#1e1e1e" stroke-width="2" fill="none"></path></g><g transform="translate(841.6153982543944 1067) rotate(0 13.5 -23)"><path d="M10.15 -37.11 C6.69 -38.5, 3.91 -42.23, -2.43 -46.49 M10.15 -37.11 C7.43 -39.81, 5.25 -41.25, -2.43 -46.49" stroke="#1e1e1e" stroke-width="2" fill="none"></path></g></g><mask></mask><g stroke-linecap="round" transform="translate(949.6153982543944 529) rotate(0 173 17.5)"><path d="M8.75 0 C126.97 1.88, 241.77 5.41, 337.25 0 C342.59 -3.14, 349.14 -0.23, 346 8.75 C349.38 10.77, 343.22 18.66, 346 26.25 C347.92 34.96, 341.62 32.19, 337.25 35 C249.2 35.8, 162.06 37.15, 8.75 35 C5.03 36.01, 1.29 35.42, 0 26.25 C1.36 18.29, 1.35 13.69, 0 8.75 C-3.53 5.08, 4.65 2.85, 8.75 0" stroke="none" stroke-width="0" fill="#ffd43b"></path><path d="M8.75 0 C123.65 0.48, 237.34 1.33, 337.25 0 M8.75 0 C82.52 1.84, 155.98 0.92, 337.25 0 M337.25 0 C342.37 1.61, 346 1.05, 346 8.75 M337.25 0 C344.31 -0.22, 346.85 3.14, 346 8.75 M346 8.75 C346.7 17.11, 346.66 21.71, 346 26.25 M346 8.75 C346.62 13.95, 345.43 19.47, 346 26.25 M346 26.25 C346.24 33.8, 343.17 35.73, 337.25 35 M346 26.25 C345.2 33.01, 341.23 33.89, 337.25 35 M337.25 35 C255.13 36.08, 172.44 37.49, 8.75 35 M337.25 35 C214.3 34.85, 92.61 34.45, 8.75 35 M8.75 35 C2.52 34.89, 1.23 31.46, 0 26.25 M8.75 35 C4.45 33.87, 0.17 34.3, 0 26.25 M0 26.25 C-1.48 22.78, 1.42 14.8, 0 8.75 M0 26.25 C-0.98 20.07, -0.9 14.72, 0 8.75 M0 8.75 C-1.64 3.92, 2.71 -0.64, 8.75 0 M0 8.75 C-0.73 2.49, 1.27 1.66, 8.75 0" stroke="#1e1e1e" stroke-width="2" fill="none"></path></g><g transform="translate(1019.585491027832 534) rotate(0 103.0299072265625 12.5)"><text x="103.0299072265625" y="17.52" font-family="Virgil, Segoe UI Emoji" font-size="20px" fill="#1e1e1e" text-anchor="middle" style="white-space: pre;" direction="ltr" dominant-baseline="alphabetic">1. Competitive Rivalry</text></g><g stroke-linecap="round" transform="translate(952.6153982543944 594) rotate(0 174 18.5)"><path d="M9.25 0 C136.76 -3.21, 262.35 -4.25, 338.75 0 C343.72 -1.11, 345.81 4.26, 348 9.25 C347.07 14.58, 349.19 20.95, 348 27.75 C345.28 31.13, 347.39 36.69, 338.75 37 C268.02 37.37, 200.31 38.79, 9.25 37 C1.8 39.99, -3.51 34.31, 0 27.75 C-1.49 25.26, 2.47 20.51, 0 9.25 C-1.61 6.41, 1.37 0.36, 9.25 0" stroke="none" stroke-width="0" fill="#ffd43b"></path><path d="M9.25 0 C78.81 -0.56, 151.25 -1.68, 338.75 0 M9.25 0 C114.15 1.85, 218.16 1.69, 338.75 0 M338.75 0 C343.66 -1.96, 347.38 3.79, 348 9.25 M338.75 0 C346.43 -1.75, 345.93 4.8, 348 9.25 M348 9.25 C348.78 17.14, 346.99 23.98, 348 27.75 M348 9.25 C347.53 14.86, 348.82 20.84, 348 27.75 M348 27.75 C348.43 33.23, 345.96 37.53, 338.75 37 M348 27.75 C345.96 32.19, 346.83 38.83, 338.75 37 M338.75 37 C263.82 37.42, 188.94 38.48, 9.25 37 M338.75 37 C270.53 36.19, 201.64 35.96, 9.25 37 M9.25 37 C2.9 37.98, -1.15 34.18, 0 27.75 M9.25 37 C1.25 34.75, -1.52 32.07, 0 27.75 M0 27.75 C1.27 21.68, -1.27 14.76, 0 9.25 M0 27.75 C0.41 23.36, 1.06 19.54, 0 9.25 M0 9.25 C1.28 4.71, 1.15 1.89, 9.25 0 M0 9.25 C-0.57 1.85, 1.7 -2.19, 9.25 0" stroke="#1e1e1e" stroke-width="2" fill="none"></path></g><g transform="translate(989.5055044555663 600) rotate(0 137.10989379882812 12.5)"><text x="137.10989379882812" y="17.52" font-family="Virgil, Segoe UI Emoji" font-size="20px" fill="#1e1e1e" text-anchor="middle" style="white-space: pre;" direction="ltr" dominant-baseline="alphabetic">2. Threat of New Entrants</text></g><g stroke-linecap="round" transform="translate(956.1153982543944 664.5) rotate(0 174 17.5)"><path d="M8.75 0 C90.73 5.39, 169.85 3.04, 339.25 0 C343.04 3.42, 346.33 3.97, 348 8.75 C346.33 13.06, 348.87 18.91, 348 26.25 C350.89 33.22, 344.33 35.63, 339.25 35 C217.36 32.2, 101.08 34.49, 8.75 35 C4.39 37.61, -0.15 28.66, 0 26.25 C-1.85 21.16, -2.04 19.11, 0 8.75 C1.42 1.97, 4.82 1.29, 8.75 0" stroke="none" stroke-width="0" fill="#ffd43b"></path><path d="M8.75 0 C81 1.13, 150.43 1.25, 339.25 0 M8.75 0 C128.14 1.46, 246.72 2.02, 339.25 0 M339.25 0 C343.22 1.56, 348.83 2.09, 348 8.75 M339.25 0 C347.31 0.29, 349.62 2.57, 348 8.75 M348 8.75 C348.32 14.87, 346.43 22.65, 348 26.25 M348 8.75 C347.56 14.33, 348.71 20.83, 348 26.25 M348 26.25 C349.18 30.56, 345.69 33.43, 339.25 35 M348 26.25 C345.74 30.03, 346.99 32.98, 339.25 35 M339.25 35 C259.94 37.29, 179.8 37.81, 8.75 35 M339.25 35 C224.7 33.9, 109.46 33.89, 8.75 35 M8.75 35 C4.17 36.99, 0.25 33.18, 0 26.25 M8.75 35 C1.68 36.79, -0.93 31.86, 0 26.25 M0 26.25 C1.22 23.24, -0.45 17.7, 0 8.75 M0 26.25 C0.56 19.61, -0.71 12.64, 0 8.75 M0 8.75 C-0.6 4.84, 1.1 -0.62, 8.75 0 M0 8.75 C1.01 3.37, 3.65 -0.1, 8.75 0" stroke="#1e1e1e" stroke-width="2" fill="none"></path></g><g transform="translate(971.865535583496 669.5) rotate(0 158.24986267089844 12.5)"><text x="158.24986267089844" y="17.52" font-family="Virgil, Segoe UI Emoji" font-size="20px" fill="#1e1e1e" text-anchor="middle" style="white-space: pre;" direction="ltr" dominant-baseline="alphabetic">3. Bargaining Power of Suppliers</text></g><g stroke-linecap="round" transform="translate(956.6153982543944 732.5) rotate(0 174 17.5)"><path d="M8.75 0 C85.62 -0.72, 161.32 -0.54, 339.25 0 C343.2 -0.66, 347.16 1.03, 348 8.75 C345.92 11.95, 348.98 19.54, 348 26.25 C346.01 30, 346.98 38.18, 339.25 35 C238.61 35.01, 143.58 35.07, 8.75 35 C3.3 36.87, 2.54 31.25, 0 26.25 C-0.91 22.28, -3.05 11.34, 0 8.75 C0.73 -0.57, 3.23 1.54, 8.75 0" stroke="none" stroke-width="0" fill="#ffd43b"></path><path d="M8.75 0 C135.12 -0.72, 261.55 -1.08, 339.25 0 M8.75 0 C134.33 -1.02, 259.63 -2.03, 339.25 0 M339.25 0 C346.72 -1.52, 347.39 1.57, 348 8.75 M339.25 0 C345.59 -0.28, 347.03 3.47, 348 8.75 M348 8.75 C348.75 16.16, 348.03 20.36, 348 26.25 M348 8.75 C348.14 14.35, 348.71 19.84, 348 26.25 M348 26.25 C349.04 32.11, 344.12 36.42, 339.25 35 M348 26.25 C350.13 33.13, 345.49 33.75, 339.25 35 M339.25 35 C232.47 36.49, 126 36.79, 8.75 35 M339.25 35 C216.5 34.87, 93.41 35.99, 8.75 35 M8.75 35 C1.46 33.2, -0.69 31.6, 0 26.25 M8.75 35 C3.59 33.47, 0.28 31.29, 0 26.25 M0 26.25 C-1.72 23.58, -1.25 16.43, 0 8.75 M0 26.25 C-0.69 21.3, 0.29 15.44, 0 8.75 M0 8.75 C1.89 2.93, 4.26 -1.2, 8.75 0 M0 8.75 C-1.54 0.91, 4.35 -1.44, 8.75 0" stroke="#1e1e1e" stroke-width="2" fill="none"></path></g><g transform="translate(981.5755117797851 737.5) rotate(0 149.03988647460938 12.5)"><text x="149.03988647460938" y="17.52" font-family="Virgil, Segoe UI Emoji" font-size="20px" fill="#1e1e1e" text-anchor="middle" style="white-space: pre;" direction="ltr" dominant-baseline="alphabetic">4. Bargaining Power of Buyers</text></g><g stroke-linecap="round" transform="translate(962.6153982543944 802.5) rotate(0 172 17.5)"><path d="M8.75 0 C133.59 1.17, 261.42 0.25, 335.25 0 C342.12 1.53, 344.6 3.57, 344 8.75 C346.6 14.92, 341.68 16.91, 344 26.25 C346.47 30.62, 339.63 35.18, 335.25 35 C206.16 31.16, 77.33 32.87, 8.75 35 C2.45 32.13, -0.06 30.54, 0 26.25 C0.73 19.86, 0.93 14.27, 0 8.75 C-1.88 4.94, 6.14 3.11, 8.75 0" stroke="none" stroke-width="0" fill="#ffd43b"></path><path d="M8.75 0 C76.35 -2.87, 142.21 -2.38, 335.25 0 M8.75 0 C127.4 -1.15, 245.8 -0.89, 335.25 0 M335.25 0 C339.96 -1.12, 343.23 2, 344 8.75 M335.25 0 C339.71 1.7, 343.41 2.31, 344 8.75 M344 8.75 C343.81 12.01, 345.41 17.63, 344 26.25 M344 8.75 C343.15 13.95, 343.04 21.29, 344 26.25 M344 26.25 C345.71 30.2, 341.39 33.27, 335.25 35 M344 26.25 C342.63 31.34, 338.92 32.73, 335.25 35 M335.25 35 C211.05 36.42, 83.84 36.31, 8.75 35 M335.25 35 C235.51 34.45, 135.17 35.14, 8.75 35 M8.75 35 C2.45 33.33, -0.71 33.08, 0 26.25 M8.75 35 C4.42 33.17, 0.01 32.04, 0 26.25 M0 26.25 C-1.7 22.81, -1 17.6, 0 8.75 M0 26.25 C0.92 21.26, -0.09 17.17, 0 8.75 M0 8.75 C0.9 3.39, 3.53 0.56, 8.75 0 M0 8.75 C-2.15 3.85, 2.76 0.95, 8.75 0" stroke="#1e1e1e" stroke-width="2" fill="none"></path></g><g transform="translate(1007.235523071289 807.5) rotate(0 127.37987518310547 12.5)"><text x="127.37987518310547" y="17.52" font-family="Virgil, Segoe UI Emoji" font-size="20px" fill="#1e1e1e" text-anchor="middle" style="white-space: pre;" direction="ltr" dominant-baseline="alphabetic">5. Threat of Substitutes</text></g><g stroke-linecap="round"><g transform="translate(810.6153982543944 624) rotate(0 61.5 -42.16887949033679)"><path d="M0.79 -0.37 C8.7 -9.46, 26.21 -39.95, 46.66 -53.85 C67.11 -67.75, 110.9 -78.88, 123.51 -83.77 M-0.25 -1.61 C7.53 -11.06, 24.99 -41.34, 45.53 -55.37 C66.08 -69.41, 110.23 -80.86, 123.01 -85.82" stroke="#1e1e1e" stroke-width="2" fill="none"></path></g><g transform="translate(810.6153982543944 624) rotate(0 61.5 -42.16887949033679)"><path d="M103.39 -70.33 C107.31 -74.67, 114.47 -76.91, 123.01 -85.82 M103.39 -70.33 C109.79 -75.4, 117.64 -82.01, 123.01 -85.82" stroke="#1e1e1e" stroke-width="2" fill="none"></path></g><g transform="translate(810.6153982543944 624) rotate(0 61.5 -42.16887949033679)"><path d="M98.03 -86.57 C103.3 -87.12, 111.72 -85.53, 123.01 -85.82 M98.03 -86.57 C106.2 -86.05, 115.91 -87.03, 123.01 -85.82" stroke="#1e1e1e" stroke-width="2" fill="none"></path></g></g><mask></mask><g stroke-linecap="round"><g transform="translate(933.4083051940931 550.3647490788055) rotate(0 -57.72958713791871 36.91660750258853)"><path d="M-0.09 0.85 C-7.9 7.1, -27.77 26.06, -46.96 38.22 C-66.14 50.38, -103.83 67.92, -115.19 73.83 M-1.6 0.26 C-9.05 6.6, -25.82 27.06, -44.86 39.54 C-63.89 52.02, -104.17 69.29, -115.81 75.14" stroke="#1e1e1e" stroke-width="2" fill="none"></path></g><g transform="translate(933.4083051940931 550.3647490788055) rotate(0 -57.72958713791871 36.91660750258853)"><path d="M-98.18 57.42 C-101.77 60.62, -109.01 68.17, -115.81 75.14 M-98.18 57.42 C-102.46 62.43, -108.36 67.19, -115.81 75.14" stroke="#1e1e1e" stroke-width="2" fill="none"></path></g><g transform="translate(933.4083051940931 550.3647490788055) rotate(0 -57.72958713791871 36.91660750258853)"><path d="M-90.91 72.9 C-96.72 71.6, -106.07 74.64, -115.81 75.14 M-90.91 72.9 C-97.41 73.26, -105.49 73.39, -115.81 75.14" stroke="#1e1e1e" stroke-width="2" fill="none"></path></g></g><mask></mask><g transform="translate(595.6153982543944 10) rotate(0 118.64995574951172 17.5)"><text x="0" y="24.528" font-family="Virgil, Segoe UI Emoji" font-size="28px" fill="#1e1e1e" text-anchor="start" style="white-space: pre;" direction="ltr" dominant-baseline="alphabetic">"FORCE QUANT" </text></g><g transform="translate(549.6153982543944 60) rotate(0 168.31982421875 50)"><text x="0" y="17.52" font-family="Virgil, Segoe UI Emoji" font-size="20px" fill="#1e1e1e" text-anchor="start" style="white-space: pre;" direction="ltr" dominant-baseline="alphabetic">A LangGraph agent who uses </text><text x="0" y="42.519999999999996" font-family="Virgil, Segoe UI Emoji" font-size="20px" fill="#1e1e1e" text-anchor="start" style="white-space: pre;" direction="ltr" dominant-baseline="alphabetic">Porter's 5 Forces to estimate</text><text x="0" y="67.52" font-family="Virgil, Segoe UI Emoji" font-size="20px" fill="#1e1e1e" text-anchor="start" style="white-space: pre;" direction="ltr" dominant-baseline="alphabetic">future stock performance relative</text><text x="0" y="92.52" font-family="Virgil, Segoe UI Emoji" font-size="20px" fill="#1e1e1e" text-anchor="start" style="white-space: pre;" direction="ltr" dominant-baseline="alphabetic">to the S&amp;P 500 (with rationale).</text></g><g stroke-linecap="round"><g transform="translate(848.9852377420616 655.0941151941526) rotate(0 45.5 -24.668879490336792)"><path d="M-0.22 -0.4 C6.03 -5.12, 23.27 -20.63, 38.53 -28.66 C53.79 -36.68, 82.64 -45.24, 91.35 -48.56 M-1.8 -1.66 C4.17 -6.72, 21.91 -22.46, 37.34 -30.6 C52.76 -38.74, 81.84 -47.14, 90.76 -50.5" stroke="#1e1e1e" stroke-width="2" fill="none"></path></g><g transform="translate(848.9852377420616 655.0941151941526) rotate(0 45.5 -24.668879490336792)"><path d="M71.24 -34.88 C78.08 -41.59, 86.77 -46.2, 90.76 -50.5 M71.24 -34.88 C79.03 -40.65, 86.24 -46.27, 90.76 -50.5" stroke="#1e1e1e" stroke-width="2" fill="none"></path></g><g transform="translate(848.9852377420616 655.0941151941526) rotate(0 45.5 -24.668879490336792)"><path d="M65.77 -51.08 C74.64 -51.59, 85.43 -50.01, 90.76 -50.5 M65.77 -51.08 C75.52 -50.98, 84.72 -50.69, 90.76 -50.5" stroke="#1e1e1e" stroke-width="2" fill="none"></path></g></g><mask></mask><g stroke-linecap="round"><g transform="translate(941.069148534453 614.8011961748903) rotate(0 -48.22958713791871 23.416607502588533)"><path d="M0.28 0.28 C-6.71 5.48, -26.34 24.24, -42.58 32 C-58.82 39.77, -88.05 44.47, -97.17 46.86 M-1.04 -0.62 C-8.1 4.66, -27.81 25.07, -43.41 33.21 C-59.01 41.34, -85.64 45.85, -94.64 48.2" stroke="#1e1e1e" stroke-width="2" fill="none"></path></g><g transform="translate(941.069148534453 614.8011961748903) rotate(0 -48.22958713791871 23.416607502588533)"><path d="M-73.61 34.67 C-78.18 38.37, -84.82 40.13, -94.64 48.2 M-73.61 34.67 C-80.19 39.57, -85.68 42.74, -94.64 48.2" stroke="#1e1e1e" stroke-width="2" fill="none"></path></g><g transform="translate(941.069148534453 614.8011961748903) rotate(0 -48.22958713791871 23.416607502588533)"><path d="M-69.84 51.35 C-75.44 51, -82.99 48.7, -94.64 48.2 M-69.84 51.35 C-77.45 51.19, -84.08 49.31, -94.64 48.2" stroke="#1e1e1e" stroke-width="2" fill="none"></path></g></g><mask></mask><g stroke-linecap="round"><g transform="translate(851.8419287440879 682.4515458020526) rotate(0 47.5 -7)"><path d="M-0.67 -0.55 C7.12 -2.86, 31.59 -13.51, 47.69 -13.8 C63.8 -14.1, 87.98 -4.08, 95.97 -2.31 M1.19 1.78 C8.79 -0.93, 31.35 -14.84, 47.11 -15.82 C62.86 -16.8, 87.53 -6.42, 95.71 -4.12" stroke="#1e1e1e" stroke-width="2" fill="none"></path></g><g transform="translate(851.8419287440879 682.4515458020526) rotate(0 47.5 -7)"><path d="M71.13 -3.48 C79.55 -2.44, 90.11 -2.22, 95.71 -4.12 M71.13 -3.48 C79.74 -2.95, 90.41 -3.11, 95.71 -4.12" stroke="#1e1e1e" stroke-width="2" fill="none"></path></g><g transform="translate(851.8419287440879 682.4515458020526) rotate(0 47.5 -7)"><path d="M76.47 -19.43 C82.88 -12.36, 91.42 -6.09, 95.71 -4.12 M76.47 -19.43 C83.1 -12.74, 91.72 -6.76, 95.71 -4.12" stroke="#1e1e1e" stroke-width="2" fill="none"></path></g></g><mask></mask><g stroke-linecap="round"><g transform="translate(947.0600430246402 687.2140803959672) rotate(0 -48.72958713791871 6.317625460597242)"><path d="M0.82 -0.9 C-7.18 1.12, -30.91 12.06, -47.37 13.29 C-63.83 14.52, -89.76 7.59, -97.93 6.48 M-0.21 1.24 C-8.39 3.43, -31.64 10.45, -48.1 11.52 C-64.55 12.58, -90.41 8.25, -98.94 7.61" stroke="#1e1e1e" stroke-width="2" fill="none"></path></g><g transform="translate(947.0600430246402 687.2140803959672) rotate(0 -48.72958713791871 6.317625460597242)"><path d="M-74.63 1.78 C-84.67 4.71, -90.66 5.28, -98.94 7.61 M-74.63 1.78 C-81.49 2.92, -88.38 5.31, -98.94 7.61" stroke="#1e1e1e" stroke-width="2" fill="none"></path></g><g transform="translate(947.0600430246402 687.2140803959672) rotate(0 -48.72958713791871 6.317625460597242)"><path d="M-76.57 18.77 C-86.09 15.68, -91.39 10.25, -98.94 7.61 M-76.57 18.77 C-83.06 15.32, -89.42 13.12, -98.94 7.61" stroke="#1e1e1e" stroke-width="2" fill="none"></path></g></g><mask></mask><g stroke-linecap="round"><g transform="translate(848.8419287440879 710.4515458020526) rotate(0 49.5 13.831120509663208)"><path d="M-1.09 -0.77 C6.62 -0.56, 29.39 -2.55, 45.98 2.09 C62.56 6.74, 89.77 22.74, 98.43 27.11 M0.55 1.44 C8.12 1.26, 28.88 -3.91, 45.02 0.54 C61.15 4.99, 88.6 23.89, 97.36 28.14" stroke="#1e1e1e" stroke-width="2" fill="none"></path></g><g transform="translate(848.8419287440879 710.4515458020526) rotate(0 49.5 13.831120509663208)"><path d="M72.74 23.8 C78.32 25.19, 88.24 25.48, 97.36 28.14 M72.74 23.8 C78.57 25.74, 85.94 26.48, 97.36 28.14" stroke="#1e1e1e" stroke-width="2" fill="none"></path></g><g transform="translate(848.8419287440879 710.4515458020526) rotate(0 49.5 13.831120509663208)"><path d="M81.29 8.99 C84.6 14.4, 92.16 18.8, 97.36 28.14 M81.29 8.99 C84.82 14.73, 90.01 19.23, 97.36 28.14" stroke="#1e1e1e" stroke-width="2" fill="none"></path></g></g><mask></mask><g stroke-linecap="round"><g transform="translate(938.6769350722345 749.7316393305829) rotate(0 -46.22958713791871 -14.083392497411467)"><path d="M0.12 -0.41 C-7.43 -0.73, -30.17 1.56, -45.69 -3.04 C-61.21 -7.63, -85.26 -23.85, -93.01 -27.98 M-1.27 -1.68 C-8.85 -2.27, -30.6 -0.84, -46.06 -4.99 C-61.53 -9.14, -86.45 -22.98, -94.06 -26.56" stroke="#1e1e1e" stroke-width="2" fill="none"></path></g><g transform="translate(938.6769350722345 749.7316393305829) rotate(0 -46.22958713791871 -14.083392497411467)"><path d="M-69.23 -23.6 C-76.53 -22.53, -81.93 -26.07, -94.06 -26.56 M-69.23 -23.6 C-76.13 -23.65, -85.09 -25.47, -94.06 -26.56" stroke="#1e1e1e" stroke-width="2" fill="none"></path></g><g transform="translate(938.6769350722345 749.7316393305829) rotate(0 -46.22958713791871 -14.083392497411467)"><path d="M-76.94 -8.34 C-82.04 -11.36, -85.37 -18.97, -94.06 -26.56 M-76.94 -8.34 C-81.45 -13.23, -87.97 -19.87, -94.06 -26.56" stroke="#1e1e1e" stroke-width="2" fill="none"></path></g></g><mask></mask><g stroke-linecap="round"><g transform="translate(805.9430890196561 734.3376205199768) rotate(0 72.50531817947694 40.424190814067)"><path d="M0.13 0.31 C15.57 5.94, 68.13 21.46, 92.33 34.87 C116.53 48.29, 136.74 73.14, 145.33 80.81 M-1.27 -0.58 C14.09 5.21, 67.34 19.23, 91.67 33.01 C116.01 46.79, 136.09 73.93, 144.73 82.1" stroke="#1e1e1e" stroke-width="2" fill="none"></path></g><g transform="translate(805.9430890196561 734.3376205199768) rotate(0 72.50531817947694 40.424190814067)"><path d="M122.53 70.6 C129.23 74.66, 135.62 77.41, 144.73 82.1 M122.53 70.6 C128.26 73.53, 136.44 77.74, 144.73 82.1" stroke="#1e1e1e" stroke-width="2" fill="none"></path></g><g transform="translate(805.9430890196561 734.3376205199768) rotate(0 72.50531817947694 40.424190814067)"><path d="M135.12 59.02 C138.48 66.26, 141.42 72.19, 144.73 82.1 M135.12 59.02 C137.01 65.39, 141.45 73.04, 144.73 82.1" stroke="#1e1e1e" stroke-width="2" fill="none"></path></g></g><mask></mask><g stroke-linecap="round"><g transform="translate(942.5831535461461 821.0492556290159) rotate(0 -69.72958713791871 -40.08339249741147)"><path d="M0.21 1.02 C-12.62 -4.3, -52.63 -17.41, -75.93 -31 C-99.24 -44.59, -128.9 -72.31, -139.62 -80.54 M-1.13 0.51 C-14.14 -5.27, -53.21 -19.61, -76.43 -32.93 C-99.65 -46.25, -129.81 -71.67, -140.47 -79.41" stroke="#1e1e1e" stroke-width="2" fill="none"></path></g><g transform="translate(942.5831535461461 821.0492556290159) rotate(0 -69.72958713791871 -40.08339249741147)"><path d="M-116.66 -71.81 C-124.23 -73.27, -134.53 -77.92, -140.47 -79.41 M-116.66 -71.81 C-123 -74.88, -128.89 -75.54, -140.47 -79.41" stroke="#1e1e1e" stroke-width="2" fill="none"></path></g><g transform="translate(942.5831535461461 821.0492556290159) rotate(0 -69.72958713791871 -40.08339249741147)"><path d="M-127.12 -58.28 C-130.75 -65, -137 -74.87, -140.47 -79.41 M-127.12 -58.28 C-130.56 -64.97, -133.63 -69.28, -140.47 -79.41" stroke="#1e1e1e" stroke-width="2" fill="none"></path></g></g><mask></mask><g transform="translate(1327.4354971313476 594) rotate(0 160.09988403320312 87.5)"><text x="0" y="17.52" font-family="Virgil, Segoe UI Emoji" font-size="20px" fill="#1e1e1e" text-anchor="start" style="white-space: pre;" direction="ltr" dominant-baseline="alphabetic">6. Independently calculate</text><text x="0" y="42.519999999999996" font-family="Virgil, Segoe UI Emoji" font-size="20px" fill="#1e1e1e" text-anchor="start" style="white-space: pre;" direction="ltr" dominant-baseline="alphabetic">   a score (1 - 10) for each</text><text x="0" y="67.52" font-family="Virgil, Segoe UI Emoji" font-size="20px" fill="#1e1e1e" text-anchor="start" style="white-space: pre;" direction="ltr" dominant-baseline="alphabetic">   of the Porter's 5 Forces,</text><text x="0" y="92.52" font-family="Virgil, Segoe UI Emoji" font-size="20px" fill="#1e1e1e" text-anchor="start" style="white-space: pre;" direction="ltr" dominant-baseline="alphabetic">   together with a one sentence</text><text x="0" y="117.52" font-family="Virgil, Segoe UI Emoji" font-size="20px" fill="#1e1e1e" text-anchor="start" style="white-space: pre;" direction="ltr" dominant-baseline="alphabetic">   rationale, then validate and</text><text x="0" y="142.52" font-family="Virgil, Segoe UI Emoji" font-size="20px" fill="#1e1e1e" text-anchor="start" style="white-space: pre;" direction="ltr" dominant-baseline="alphabetic">   calculate a composite total</text><text x="0" y="167.52" font-family="Virgil, Segoe UI Emoji" font-size="20px" fill="#1e1e1e" text-anchor="start" style="white-space: pre;" direction="ltr" dominant-baseline="alphabetic">   (and a 2-sentence summary).</text></g><g stroke-linecap="round"><g transform="translate(431.6153982543945 718) rotate(0 -1.5 46.5)"><path d="M0.3 1.12 C-0.22 16.36, -2.18 77.26, -2.69 92.52 M-1 0.66 C-1.69 16.59, -3.07 78.27, -3.47 93.8" stroke="#1e1e1e" stroke-width="2" fill="none"></path></g><g transform="translate(431.6153982543945 718) rotate(0 -1.5 46.5)"><path d="M-11.45 70.11 C-6.7 78.59, -6.68 86.43, -3.47 93.8 M-11.45 70.11 C-9.07 76.55, -6.11 82.72, -3.47 93.8" stroke="#1e1e1e" stroke-width="2" fill="none"></path></g><g transform="translate(431.6153982543945 718) rotate(0 -1.5 46.5)"><path d="M5.65 70.52 C4.64 78.91, -1.1 86.61, -3.47 93.8 M5.65 70.52 C3.36 76.84, 1.65 82.9, -3.47 93.8" stroke="#1e1e1e" stroke-width="2" fill="none"></path></g></g><mask></mask><g stroke-linecap="round"><g transform="translate(735.6153982543944 740) rotate(0 -0.5 36)"><path d="M-0.33 -1.03 C-0.55 11.13, -1.13 60.22, -1.13 72.26 M1.69 1.04 C1.28 12.88, -1.73 58.42, -2.15 70.27" stroke="#1e1e1e" stroke-width="2" fill="none"></path></g><g transform="translate(735.6153982543944 740) rotate(0 -0.5 36)"><path d="M-9.46 46.36 C-9 53.71, -4.55 62.53, -2.15 70.27 M-9.46 46.36 C-6.77 51.29, -5.13 57.79, -2.15 70.27" stroke="#1e1e1e" stroke-width="2" fill="none"></path></g><g transform="translate(735.6153982543944 740) rotate(0 -0.5 36)"><path d="M7.61 47.25 C2.69 54.28, 1.75 62.81, -2.15 70.27 M7.61 47.25 C6.31 52.1, 3.94 58.39, -2.15 70.27" stroke="#1e1e1e" stroke-width="2" fill="none"></path></g></g><mask></mask><g transform="translate(33.615398254394506 852) rotate(0 122.56990051269531 75)"><text x="0" y="17.52" font-family="Virgil, Segoe UI Emoji" font-size="20px" fill="#1e1e1e" text-anchor="start" style="white-space: pre;" direction="ltr" dominant-baseline="alphabetic">7. Use the two P/E</text><text x="0" y="42.519999999999996" font-family="Virgil, Segoe UI Emoji" font-size="20px" fill="#1e1e1e" text-anchor="start" style="white-space: pre;" direction="ltr" dominant-baseline="alphabetic">   multiples to calculate</text><text x="0" y="67.52" font-family="Virgil, Segoe UI Emoji" font-size="20px" fill="#1e1e1e" text-anchor="start" style="white-space: pre;" direction="ltr" dominant-baseline="alphabetic">   the current premium</text><text x="0" y="92.52" font-family="Virgil, Segoe UI Emoji" font-size="20px" fill="#1e1e1e" text-anchor="start" style="white-space: pre;" direction="ltr" dominant-baseline="alphabetic">   (discount) to the </text><text x="0" y="117.52" font-family="Virgil, Segoe UI Emoji" font-size="20px" fill="#1e1e1e" text-anchor="start" style="white-space: pre;" direction="ltr" dominant-baseline="alphabetic">   S&amp;P 500. Validate</text><text x="0" y="142.52" font-family="Virgil, Segoe UI Emoji" font-size="20px" fill="#1e1e1e" text-anchor="start" style="white-space: pre;" direction="ltr" dominant-baseline="alphabetic">   the result.</text></g><g stroke-linecap="round"><g transform="translate(560.4863641135455 892.7352576047182) rotate(0 13.5 -23)"><path d="M0.5 -0.07 C5.02 -5.75, 28.36 -26.19, 27.93 -33.66 C27.49 -41.13, 2.91 -42.97, -2.1 -44.89 M-0.69 -1.15 C3.59 -7.24, 26.79 -28.02, 26.94 -35.6 C27.09 -43.19, 5.12 -44.7, 0.21 -46.64" stroke="#1e1e1e" stroke-width="2" fill="none"></path></g><g transform="translate(560.4863641135455 892.7352576047182) rotate(0 13.5 -23)"><path d="M15.78 -48.62 C9.96 -47.92, 4.77 -48.54, 0.21 -46.64 M15.78 -48.62 C8.98 -48.5, 3.16 -46.19, 0.21 -46.64" stroke="#1e1e1e" stroke-width="2" fill="none"></path></g><g transform="translate(560.4863641135455 892.7352576047182) rotate(0 13.5 -23)"><path d="M13.41 -38.15 C8.43 -41.32, 4.11 -45.79, 0.21 -46.64 M13.41 -38.15 C7.64 -42.16, 2.75 -43.96, 0.21 -46.64" stroke="#1e1e1e" stroke-width="2" fill="none"></path></g></g><mask></mask><g stroke-linecap="round"><g transform="translate(608.7011889541998 706.3578192453133) rotate(0 -12.5 -23)"><path d="M-0.09 1.04 C-4.27 -3.06, -25.67 -16.04, -25.7 -23.81 C-25.73 -31.59, -4.49 -42, -0.28 -45.61 M-1.59 0.55 C-5.34 -3.93, -23.51 -17.26, -23.36 -25.31 C-23.2 -33.36, -4.57 -44, -0.67 -47.74" stroke="#1e1e1e" stroke-width="2" fill="none"></path></g><g transform="translate(608.7011889541998 706.3578192453133) rotate(0 -12.5 -23)"><path d="M-9.35 -34.37 C-5.88 -38.64, -3.52 -40.1, -0.67 -47.74 M-9.35 -34.37 C-7.25 -38.52, -3.31 -43.2, -0.67 -47.74" stroke="#1e1e1e" stroke-width="2" fill="none"></path></g><g transform="translate(608.7011889541998 706.3578192453133) rotate(0 -12.5 -23)"><path d="M-15.91 -43.08 C-10.74 -45.16, -6.74 -44.44, -0.67 -47.74 M-15.91 -43.08 C-11.59 -44.36, -5.47 -46.15, -0.67 -47.74" stroke="#1e1e1e" stroke-width="2" fill="none"></path></g></g><mask></mask><g stroke-linecap="round"><g transform="translate(855.7011889541998 891.3578192453133) rotate(0 13.5 -23)"><path d="M0.86 -0.02 C5.54 -5.81, 28.6 -27.38, 28.09 -34.98 C27.59 -42.58, 2.78 -43.92, -2.16 -45.62 M-0.15 -1.08 C4.39 -6.72, 27.15 -26.18, 27.2 -33.96 C27.24 -41.75, 4.92 -45.54, 0.13 -47.77" stroke="#1e1e1e" stroke-width="2" fill="none"></path></g><g transform="translate(855.7011889541998 891.3578192453133) rotate(0 13.5 -23)"><path d="M15.81 -48.49 C11.08 -48.04, 5.12 -49.46, 0.13 -47.77 M15.81 -48.49 C10.54 -47.63, 5.3 -47.5, 0.13 -47.77" stroke="#1e1e1e" stroke-width="2" fill="none"></path></g><g transform="translate(855.7011889541998 891.3578192453133) rotate(0 13.5 -23)"><path d="M12.6 -38.24 C8.86 -40.89, 3.86 -45.38, 0.13 -47.77 M12.6 -38.24 C8.44 -40.8, 4.26 -44.06, 0.13 -47.77" stroke="#1e1e1e" stroke-width="2" fill="none"></path></g></g><mask></mask><g transform="translate(923.6153982543944 877) rotate(0 205.47982788085938 37.5)"><text x="0" y="17.52" font-family="Virgil, Segoe UI Emoji" font-size="20px" fill="#1e1e1e" text-anchor="start" style="white-space: pre;" direction="ltr" dominant-baseline="alphabetic">8. Use the Composite Porter Score</text><text x="0" y="42.519999999999996" font-family="Virgil, Segoe UI Emoji" font-size="20px" fill="#1e1e1e" text-anchor="start" style="white-space: pre;" direction="ltr" dominant-baseline="alphabetic">    to determine 12-month target premium</text><text x="0" y="67.52" font-family="Virgil, Segoe UI Emoji" font-size="20px" fill="#1e1e1e" text-anchor="start" style="white-space: pre;" direction="ltr" dominant-baseline="alphabetic">    (discount) to the S&amp;P 500. </text></g><g transform="translate(905.1355703735351 1000.5) rotate(0 233.7998046875 37.5)"><text x="0" y="17.52" font-family="Virgil, Segoe UI Emoji" font-size="20px" fill="#1e1e1e" text-anchor="start" style="white-space: pre;" direction="ltr" dominant-baseline="alphabetic">9. Calculate the expected 12-month percentage</text><text x="0" y="42.519999999999996" font-family="Virgil, Segoe UI Emoji" font-size="20px" fill="#1e1e1e" text-anchor="start" style="white-space: pre;" direction="ltr" dominant-baseline="alphabetic">   return relative to the S&amp;P 500. Validate</text><text x="0" y="67.52" font-family="Virgil, Segoe UI Emoji" font-size="20px" fill="#1e1e1e" text-anchor="start" style="white-space: pre;" direction="ltr" dominant-baseline="alphabetic">   the result (including retries).</text></g><g stroke-linecap="round"><g transform="translate(731.6153982543944 922) rotate(0 0 39.5)"><path d="M0.26 0.78 C0.08 14.23, -0.81 67.03, -0.93 80.2 M-1.06 0.14 C-0.88 13.34, 1.36 65.75, 1.29 78.71" stroke="#1e1e1e" stroke-width="2" fill="none"></path></g><g transform="translate(731.6153982543944 922) rotate(0 0 39.5)"><path d="M-7.77 55.41 C-3.76 61.08, -0.24 69.09, 1.29 78.71 M-7.77 55.41 C-3.51 63.17, 0 73.24, 1.29 78.71" stroke="#1e1e1e" stroke-width="2" fill="none"></path></g><g transform="translate(731.6153982543944 922) rotate(0 0 39.5)"><path d="M9.32 55.03 C8.02 60.86, 6.22 68.99, 1.29 78.71 M9.32 55.03 C7.3 62.8, 4.53 73.02, 1.29 78.71" stroke="#1e1e1e" stroke-width="2" fill="none"></path></g></g><mask></mask><g stroke-linecap="round" transform="translate(644.6153982543944 1156) rotate(0 89.5 34)"><path d="M17 0 C73.67 -0.02, 129.81 0.23, 162 0 C176.09 -0.64, 175.74 4.71, 179 17 C180.81 32.13, 179.51 46.35, 179 51 C176.94 65.82, 176.21 69.86, 162 68 C124.81 66.21, 82.89 69.2, 17 68 C6.84 65.56, 1.58 63.24, 0 51 C-3.02 46.58, -1.77 40.01, 0 17 C-2.73 8.15, 7.14 -0.81, 17 0" stroke="none" stroke-width="0" fill="#b2f2bb"></path><path d="M17 0 C69.84 1.07, 126.59 -1.13, 162 0 M17 0 C50.63 -1.29, 85.64 -2.08, 162 0 M162 0 C173.05 -0.62, 179.63 4.96, 179 17 M162 0 C174.52 -0.58, 180.33 4.3, 179 17 M179 17 C178.38 26.98, 179.39 40.33, 179 51 M179 17 C178.25 26.17, 179.09 33.34, 179 51 M179 51 C180.76 62.34, 173.48 69.09, 162 68 M179 51 C179.19 63.49, 171.68 68.36, 162 68 M162 68 C123.98 67.69, 87.94 65.54, 17 68 M162 68 C123.66 69.75, 84.9 68.84, 17 68 M17 68 C7.49 68.4, -0.92 62.82, 0 51 M17 68 C3.69 68.61, -0.92 62.68, 0 51 M0 51 C0.71 39.62, -0.13 31.02, 0 17 M0 51 C-0.26 42.43, -0.65 35.01, 0 17 M0 17 C-0.75 7.63, 3.84 1.73, 17 0 M0 17 C1.19 7.57, 6.93 -2.02, 17 0" stroke="#1e1e1e" stroke-width="2" fill="none"></path></g><g transform="translate(702.4754293823241 1177.5) rotate(0 31.639968872070312 12.5)"><text x="31.639968872070312" y="17.52" font-family="Virgil, Segoe UI Emoji" font-size="20px" fill="#1e1e1e" text-anchor="middle" style="white-space: pre;" direction="ltr" dominant-baseline="alphabetic">Result</text></g><g stroke-linecap="round"><g transform="translate(734.6153982543944 1084) rotate(0 -1 29.5)"><path d="M-0.63 -1 C-1.05 8.95, -2.24 48.56, -2.61 58.6 M1.24 1.09 C1.22 11.3, 0.05 50, -0.21 59.92" stroke="#1e1e1e" stroke-width="2" fill="none"></path></g><g transform="translate(734.6153982543944 1084) rotate(0 -1 29.5)"><path d="M-8.1 36.2 C-7.67 42.19, -4.36 48.79, -0.21 59.92 M-8.1 36.2 C-5.32 44.01, -2.42 50.73, -0.21 59.92" stroke="#1e1e1e" stroke-width="2" fill="none"></path></g><g transform="translate(734.6153982543944 1084) rotate(0 -1 29.5)"><path d="M9 36.68 C4.42 42.44, 2.71 48.9, -0.21 59.92 M9 36.68 C6.33 44.44, 3.79 51, -0.21 59.92" stroke="#1e1e1e" stroke-width="2" fill="none"></path></g></g><mask></mask><g transform="translate(103.6153982543945 1130) rotate(0 249.519775390625 75)"><text x="0" y="17.52" font-family="Virgil, Segoe UI Emoji" font-size="20px" fill="#1e1e1e" text-anchor="start" style="white-space: pre;" direction="ltr" dominant-baseline="alphabetic">10. Return answer to user in markdown format,</text><text x="0" y="42.519999999999996" font-family="Virgil, Segoe UI Emoji" font-size="20px" fill="#1e1e1e" text-anchor="start" style="white-space: pre;" direction="ltr" dominant-baseline="alphabetic">    including % expected return, composite Porter</text><text x="0" y="67.52" font-family="Virgil, Segoe UI Emoji" font-size="20px" fill="#1e1e1e" text-anchor="start" style="white-space: pre;" direction="ltr" dominant-baseline="alphabetic">    score w/ 2 sentence rationale and a table</text><text x="0" y="92.52" font-family="Virgil, Segoe UI Emoji" font-size="20px" fill="#1e1e1e" text-anchor="start" style="white-space: pre;" direction="ltr" dominant-baseline="alphabetic">    of the 5 raw scores included in the composite,</text><text x="0" y="117.52" font-family="Virgil, Segoe UI Emoji" font-size="20px" fill="#1e1e1e" text-anchor="start" style="white-space: pre;" direction="ltr" dominant-baseline="alphabetic">    each next to its 1 sentence rationale.</text><text x="0" y="142.52" font-family="Virgil, Segoe UI Emoji" font-size="20px" fill="#1e1e1e" text-anchor="start" style="white-space: pre;" direction="ltr" dominant-baseline="alphabetic"> </text></g><g transform="translate(891.6153982543944 1133) rotate(0 221.559814453125 62.5)"><text x="0" y="17.52" font-family="Virgil, Segoe UI Emoji" font-size="20px" fill="#1e1e1e" text-anchor="start" style="white-space: pre;" direction="ltr" dominant-baseline="alphabetic">IMPORTANT NOTE: Heavily disclaim output</text><text x="0" y="42.519999999999996" font-family="Virgil, Segoe UI Emoji" font-size="20px" fill="#1e1e1e" text-anchor="start" style="white-space: pre;" direction="ltr" dominant-baseline="alphabetic">This is not investment advice, but simply an</text><text x="0" y="67.52" font-family="Virgil, Segoe UI Emoji" font-size="20px" fill="#1e1e1e" text-anchor="start" style="white-space: pre;" direction="ltr" dominant-baseline="alphabetic">academic exercise. It should not be used as</text><text x="0" y="92.52" font-family="Virgil, Segoe UI Emoji" font-size="20px" fill="#1e1e1e" text-anchor="start" style="white-space: pre;" direction="ltr" dominant-baseline="alphabetic">an actual estimate of future stock price </text><text x="0" y="117.52" font-family="Virgil, Segoe UI Emoji" font-size="20px" fill="#1e1e1e" text-anchor="start" style="white-space: pre;" direction="ltr" dominant-baseline="alphabetic">performance.</text></g></svg>